<svg width="151" height="15" viewBox="0 0 151 15" fill="none" xmlns="http://www.w3.org/2000/svg">
<path d="M150.707 8.07112C151.098 7.6806 151.098 7.04743 150.707 6.65691L144.343 0.292946C143.953 -0.0975785 143.319 -0.0975785 142.929 0.292946C142.538 0.68347 142.538 1.31664 142.929 1.70716L148.586 7.36401L142.929 13.0209C142.538 13.4114 142.538 14.0446 142.929 14.4351C143.319 14.8256 143.953 14.8256 144.343 14.4351L150.707 8.07112ZM0 7.36401V8.36401H0.986842V7.36401V6.36401H0V7.36401ZM2.96053 7.36401V8.36401H4.93421V7.36401V6.36401H2.96053V7.36401ZM6.90789 7.36401V8.36401H8.88158V7.36401V6.36401H6.90789V7.36401ZM10.8553 7.36401V8.36401H12.8289V7.36401V6.36401H10.8553V7.36401ZM14.8026 7.36401V8.36401H16.7763V7.36401V6.36401H14.8026V7.36401ZM18.75 7.36401V8.36401H20.7237V7.36401V6.36401H18.75V7.36401ZM22.6974 7.36401V8.36401H24.6711V7.36401V6.36401H22.6974V7.36401ZM26.6447 7.36401V8.36401H28.6184V7.36401V6.36401H26.6447V7.36401ZM30.5921 7.36401V8.36401H32.5658V7.36401V6.36401H30.5921V7.36401ZM34.5395 7.36401V8.36401H36.5132V7.36401V6.36401H34.5395V7.36401ZM38.4868 7.36401V8.36401H40.4605V7.36401V6.36401H38.4868V7.36401ZM42.4342 7.36401V8.36401H44.4079V7.36401V6.36401H42.4342V7.36401ZM46.3816 7.36401V8.36401H48.3552V7.36401V6.36401H46.3816V7.36401ZM50.3289 7.36401V8.36401H52.3026V7.36401V6.36401H50.3289V7.36401ZM54.2763 7.36401V8.36401H56.25V7.36401V6.36401H54.2763V7.36401ZM58.2237 7.36401V8.36401H60.1973V7.36401V6.36401H58.2237V7.36401ZM62.171 7.36401V8.36401H64.1447V7.36401V6.36401H62.171V7.36401ZM66.1184 7.36401V8.36401H68.0921V7.36401V6.36401H66.1184V7.36401ZM70.0658 7.36401V8.36401H72.0395V7.36401V6.36401H70.0658V7.36401ZM74.0131 7.36401V8.36401H75.9868V7.36401V6.36401H74.0131V7.36401ZM77.9605 7.36401V8.36401H79.9342V7.36401V6.36401H77.9605V7.36401ZM81.9079 7.36401V8.36401H83.8816V7.36401V6.36401H81.9079V7.36401ZM85.8553 7.36401V8.36401H87.8289V7.36401V6.36401H85.8553V7.36401ZM89.8026 7.36401V8.36401H91.7763V7.36401V6.36401H89.8026V7.36401ZM93.75 7.36401V8.36401H95.7237V7.36401V6.36401H93.75V7.36401ZM97.6974 7.36401V8.36401H99.6711V7.36401V6.36401H97.6974V7.36401ZM101.645 7.36401V8.36401H103.618V7.36401V6.36401H101.645V7.36401ZM105.592 7.36401V8.36401H107.566V7.36401V6.36401H105.592V7.36401ZM109.539 7.36401V8.36401H111.513V7.36401V6.36401H109.539V7.36401ZM113.487 7.36401V8.36401H115.461V7.36401V6.36401H113.487V7.36401ZM117.434 7.36401V8.36401H119.408V7.36401V6.36401H117.434V7.36401ZM121.382 7.36401V8.36401H123.355V7.36401V6.36401H121.382V7.36401ZM125.329 7.36401V8.36401H127.303V7.36401V6.36401H125.329V7.36401ZM129.276 7.36401V8.36401H131.25V7.36401V6.36401H129.276V7.36401ZM133.224 7.36401V8.36401H135.197V7.36401V6.36401H133.224V7.36401ZM137.171 7.36401V8.36401H139.145V7.36401V6.36401H137.171V7.36401ZM141.118 7.36401V8.36401H143.092V7.36401V6.36401H141.118V7.36401ZM145.066 7.36401V8.36401H147.039V7.36401V6.36401H145.066V7.36401ZM149.013 7.36401V8.36401H150V7.36401V6.36401H149.013V7.36401Z" fill="#1A1A1A"/>
</svg>
