<svg width="150" height="80" viewBox="0 0 150 80" fill="none" xmlns="http://www.w3.org/2000/svg">
<line y1="54.5" x2="150" y2="57.5" stroke="#767676" stroke-opacity="0.15" stroke-width="1.7"/>
<path d="M4.61128 60.278C5.91662 60.278 6.92128 60.619 7.62528 61.301C8.33662 61.983 8.69228 62.9327 8.69228 64.15C8.69228 65.3673 8.33662 66.3133 7.62528 66.988C6.92128 67.6627 5.91662 68 4.61128 68H2.44428V60.278H4.61128ZM4.61128 67.582C5.77728 67.582 6.66462 67.2813 7.27328 66.68C7.88195 66.0713 8.18628 65.228 8.18628 64.15C8.18628 63.0647 7.88195 62.2177 7.27328 61.609C6.66462 61.0003 5.77728 60.696 4.61128 60.696H2.93928V67.582H4.61128ZM21.6184 64.612C21.6184 64.876 21.6111 65.074 21.5964 65.206H16.4374C16.4521 65.7413 16.5694 66.1923 16.7894 66.559C17.0094 66.9257 17.2991 67.2007 17.6584 67.384C18.0177 67.5673 18.4101 67.659 18.8354 67.659C19.4221 67.659 19.9134 67.516 20.3094 67.23C20.7054 66.9367 20.9547 66.5407 21.0574 66.042H21.5744C21.4571 66.6507 21.1564 67.1457 20.6724 67.527C20.1884 67.901 19.5761 68.088 18.8354 68.088C18.2781 68.088 17.7794 67.9633 17.3394 67.714C16.8994 67.4647 16.5547 67.109 16.3054 66.647C16.0561 66.1777 15.9314 65.6313 15.9314 65.008C15.9314 64.3847 16.0524 63.842 16.2944 63.38C16.5437 62.918 16.8884 62.566 17.3284 62.324C17.7684 62.0747 18.2707 61.95 18.8354 61.95C19.4074 61.95 19.9024 62.0747 20.3204 62.324C20.7457 62.566 21.0684 62.8923 21.2884 63.303C21.5084 63.7063 21.6184 64.1427 21.6184 64.612ZM21.1234 64.799C21.1454 64.271 21.0501 63.8237 20.8374 63.457C20.6321 63.0903 20.3497 62.819 19.9904 62.643C19.6311 62.4597 19.2424 62.368 18.8244 62.368C18.4064 62.368 18.0177 62.4597 17.6584 62.643C17.3064 62.819 17.0167 63.0903 16.7894 63.457C16.5694 63.8237 16.4521 64.271 16.4374 64.799H21.1234ZM31.1554 68.088C30.4881 68.088 29.9417 67.9413 29.5164 67.648C29.0984 67.3547 28.8637 66.9367 28.8124 66.394H29.3184C29.3551 66.7827 29.5311 67.0907 29.8464 67.318C30.1691 67.5453 30.6054 67.659 31.1554 67.659C31.6101 67.659 31.9694 67.5453 32.2334 67.318C32.5047 67.0833 32.6404 66.7973 32.6404 66.46C32.6404 66.2253 32.5671 66.0347 32.4204 65.888C32.2811 65.734 32.1051 65.6167 31.8924 65.536C31.6797 65.4553 31.3901 65.3673 31.0234 65.272C30.5834 65.1547 30.2277 65.041 29.9564 64.931C29.6851 64.8137 29.4541 64.6413 29.2634 64.414C29.0727 64.1867 28.9774 63.8823 28.9774 63.501C28.9774 63.2223 29.0617 62.9657 29.2304 62.731C29.3991 62.489 29.6337 62.2983 29.9344 62.159C30.2351 62.0197 30.5761 61.95 30.9574 61.95C31.5807 61.95 32.0831 62.1077 32.4644 62.423C32.8531 62.731 33.0621 63.16 33.0914 63.71H32.5964C32.5744 63.314 32.4204 62.9913 32.1344 62.742C31.8484 62.4927 31.4524 62.368 30.9464 62.368C30.5211 62.368 30.1691 62.478 29.8904 62.698C29.6117 62.918 29.4724 63.1857 29.4724 63.501C29.4724 63.7797 29.5494 64.007 29.7034 64.183C29.8647 64.3517 30.0591 64.4837 30.2864 64.579C30.5211 64.667 30.8291 64.7623 31.2104 64.865C31.6284 64.975 31.9621 65.085 32.2114 65.195C32.4681 65.2977 32.6844 65.4517 32.8604 65.657C33.0364 65.855 33.1244 66.1227 33.1244 66.46C33.1244 66.768 33.0401 67.0467 32.8714 67.296C32.7027 67.5453 32.4681 67.7397 32.1674 67.879C31.8667 68.0183 31.5294 68.088 31.1554 68.088ZM40.9352 60.696C40.8178 60.696 40.7188 60.6593 40.6382 60.586C40.5575 60.5053 40.5172 60.399 40.5172 60.267C40.5172 60.1423 40.5575 60.0397 40.6382 59.959C40.7188 59.8783 40.8178 59.838 40.9352 59.838C41.0525 59.838 41.1515 59.8783 41.2322 59.959C41.3128 60.0397 41.3532 60.1423 41.3532 60.267C41.3532 60.399 41.3128 60.5053 41.2322 60.586C41.1515 60.6593 41.0525 60.696 40.9352 60.696ZM41.1772 62.027V68H40.6822V62.027H41.1772ZM51.6157 61.95C52.2464 61.95 52.7817 62.104 53.2217 62.412C53.6617 62.7127 53.9697 63.1013 54.1457 63.578V62.027H54.6407V68.187C54.6407 68.737 54.5197 69.2173 54.2777 69.628C54.0357 70.046 53.7094 70.365 53.2987 70.585C52.8881 70.8123 52.4297 70.926 51.9237 70.926C51.1757 70.926 50.5561 70.7463 50.0647 70.387C49.5734 70.0277 49.2507 69.5437 49.0967 68.935H49.5917C49.7384 69.4117 50.0134 69.7893 50.4167 70.068C50.8201 70.354 51.3224 70.497 51.9237 70.497C52.3417 70.497 52.7194 70.4017 53.0567 70.211C53.3941 70.0277 53.6581 69.76 53.8487 69.408C54.0467 69.0633 54.1457 68.6563 54.1457 68.187V66.438C53.9697 66.9147 53.6581 67.3107 53.2107 67.626C52.7707 67.934 52.2391 68.088 51.6157 68.088C51.0584 68.088 50.5597 67.9633 50.1197 67.714C49.6871 67.4573 49.3461 67.098 49.0967 66.636C48.8547 66.1667 48.7337 65.624 48.7337 65.008C48.7337 64.392 48.8547 63.853 49.0967 63.391C49.3461 62.929 49.6871 62.5733 50.1197 62.324C50.5597 62.0747 51.0584 61.95 51.6157 61.95ZM54.1457 65.008C54.1457 64.4873 54.0357 64.029 53.8157 63.633C53.6031 63.2297 53.3097 62.9217 52.9357 62.709C52.5617 62.489 52.1437 62.379 51.6817 62.379C51.1977 62.379 50.7724 62.4853 50.4057 62.698C50.0391 62.9033 49.7531 63.204 49.5477 63.6C49.3424 63.996 49.2397 64.4653 49.2397 65.008C49.2397 65.5507 49.3424 66.02 49.5477 66.416C49.7531 66.812 50.0391 67.1163 50.4057 67.329C50.7797 67.5417 51.2051 67.648 51.6817 67.648C52.1437 67.648 52.5617 67.5417 52.9357 67.329C53.3171 67.109 53.6141 66.801 53.8267 66.405C54.0394 66.0017 54.1457 65.536 54.1457 65.008ZM65.1881 61.906C65.8994 61.906 66.4788 62.126 66.9261 62.566C67.3734 62.9987 67.5971 63.644 67.5971 64.502V68H67.1131V64.535C67.1131 63.8237 66.9334 63.281 66.5741 62.907C66.2148 62.5257 65.7271 62.335 65.1111 62.335C64.4658 62.335 63.9488 62.5403 63.5601 62.951C63.1788 63.3617 62.9881 63.9703 62.9881 64.777V68H62.4931V62.027H62.9881V63.292C63.1568 62.8447 63.4354 62.5037 63.8241 62.269C64.2201 62.027 64.6748 61.906 65.1881 61.906ZM86.7841 68.077C86.2855 68.077 85.8491 67.989 85.4751 67.813C85.1011 67.637 84.8078 67.3987 84.5951 67.098C84.3898 66.7973 84.2724 66.4637 84.2431 66.097H84.7601C84.8188 66.5003 85.0058 66.8597 85.3211 67.175C85.6438 67.4903 86.1315 67.648 86.7841 67.648C87.1655 67.648 87.4955 67.5783 87.7741 67.439C88.0601 67.2997 88.2801 67.109 88.4341 66.867C88.5881 66.625 88.6651 66.3573 88.6651 66.064C88.6651 65.69 88.5735 65.393 88.3901 65.173C88.2141 64.953 87.9904 64.788 87.7191 64.678C87.4551 64.568 87.0958 64.4507 86.6411 64.326C86.1424 64.194 85.7391 64.062 85.4311 63.93C85.1304 63.798 84.8738 63.5963 84.6611 63.325C84.4558 63.0463 84.3531 62.6687 84.3531 62.192C84.3531 61.8253 84.4484 61.4917 84.6391 61.191C84.8371 60.883 85.1158 60.641 85.4751 60.465C85.8344 60.289 86.2488 60.201 86.7181 60.201C87.4001 60.201 87.9501 60.3697 88.3681 60.707C88.7861 61.0443 89.0355 61.4587 89.1161 61.95H88.5881C88.5441 61.752 88.4451 61.5503 88.2911 61.345C88.1444 61.1397 87.9318 60.971 87.6531 60.839C87.3818 60.6997 87.0555 60.63 86.6741 60.63C86.1608 60.63 85.7281 60.773 85.3761 61.059C85.0241 61.3377 84.8481 61.7117 84.8481 62.181C84.8481 62.555 84.9398 62.8557 85.1231 63.083C85.3064 63.303 85.5301 63.4717 85.7941 63.589C86.0654 63.699 86.4284 63.8127 86.8831 63.93C87.3891 64.0693 87.7888 64.205 88.0821 64.337C88.3828 64.4617 88.6358 64.6633 88.8411 64.942C89.0538 65.2133 89.1601 65.5837 89.1601 66.053C89.1601 66.3977 89.0685 66.724 88.8851 67.032C88.7018 67.34 88.4305 67.593 88.0711 67.791C87.7191 67.9817 87.2901 68.077 86.7841 68.077ZM97.4289 62.456V66.405C97.4289 66.845 97.5096 67.1493 97.6709 67.318C97.8323 67.4793 98.1183 67.56 98.5289 67.56H99.1999V68H98.4519C97.9313 68 97.5463 67.879 97.2969 67.637C97.0549 67.3877 96.9339 66.977 96.9339 66.405V62.456H96.0319V62.027H96.9339V60.509H97.4289V62.027H99.1999V62.456H97.4289ZM111.604 62.027V68H111.109V66.702C110.941 67.1567 110.658 67.505 110.262 67.747C109.874 67.9817 109.426 68.099 108.92 68.099C108.209 68.099 107.626 67.8827 107.171 67.45C106.724 67.01 106.5 66.361 106.5 65.503V62.027H106.984V65.47C106.984 66.1813 107.164 66.7277 107.523 67.109C107.883 67.483 108.37 67.67 108.986 67.67C109.632 67.67 110.145 67.4647 110.526 67.054C110.915 66.6433 111.109 66.0347 111.109 65.228V62.027H111.604ZM119.151 65.008C119.151 64.392 119.272 63.853 119.514 63.391C119.763 62.929 120.104 62.5733 120.537 62.324C120.977 62.0747 121.476 61.95 122.033 61.95C122.642 61.95 123.17 62.104 123.617 62.412C124.064 62.7127 124.38 63.105 124.563 63.589V59.86H125.058V68H124.563V66.416C124.387 66.9073 124.079 67.3107 123.639 67.626C123.199 67.934 122.664 68.088 122.033 68.088C121.476 68.088 120.977 67.9633 120.537 67.714C120.104 67.4573 119.763 67.098 119.514 66.636C119.272 66.1667 119.151 65.624 119.151 65.008ZM124.563 65.008C124.563 64.4873 124.453 64.029 124.233 63.633C124.02 63.2297 123.727 62.9217 123.353 62.709C122.979 62.489 122.561 62.379 122.099 62.379C121.615 62.379 121.19 62.4853 120.823 62.698C120.456 62.9033 120.17 63.204 119.965 63.6C119.76 63.996 119.657 64.4653 119.657 65.008C119.657 65.5507 119.76 66.02 119.965 66.416C120.17 66.812 120.456 67.1163 120.823 67.329C121.197 67.5417 121.622 67.648 122.099 67.648C122.561 67.648 122.979 67.5417 123.353 67.329C123.734 67.109 124.031 66.801 124.244 66.405C124.457 66.0017 124.563 65.536 124.563 65.008ZM133.163 60.696C133.046 60.696 132.947 60.6593 132.866 60.586C132.786 60.5053 132.745 60.399 132.745 60.267C132.745 60.1423 132.786 60.0397 132.866 59.959C132.947 59.8783 133.046 59.838 133.163 59.838C133.281 59.838 133.38 59.8783 133.46 59.959C133.541 60.0397 133.581 60.1423 133.581 60.267C133.581 60.399 133.541 60.5053 133.46 60.586C133.38 60.6593 133.281 60.696 133.163 60.696ZM133.405 62.027V68H132.91V62.027H133.405ZM143.899 68.088C143.342 68.088 142.839 67.9633 142.392 67.714C141.945 67.4647 141.593 67.109 141.336 66.647C141.087 66.1777 140.962 65.6313 140.962 65.008C140.962 64.392 141.09 63.853 141.347 63.391C141.604 62.9217 141.956 62.566 142.403 62.324C142.858 62.0747 143.364 61.95 143.921 61.95C144.478 61.95 144.981 62.0747 145.428 62.324C145.875 62.566 146.224 62.918 146.473 63.38C146.73 63.842 146.858 64.3847 146.858 65.008C146.858 65.6313 146.73 66.1777 146.473 66.647C146.216 67.109 145.861 67.4647 145.406 67.714C144.959 67.9633 144.456 68.088 143.899 68.088ZM143.899 67.648C144.332 67.648 144.735 67.5527 145.109 67.362C145.49 67.164 145.795 66.867 146.022 66.471C146.249 66.075 146.363 65.5873 146.363 65.008C146.363 64.436 146.249 63.952 146.022 63.556C145.795 63.16 145.494 62.8667 145.12 62.676C144.746 62.478 144.343 62.379 143.91 62.379C143.477 62.379 143.074 62.478 142.7 62.676C142.333 62.8667 142.036 63.16 141.809 63.556C141.582 63.952 141.468 64.436 141.468 65.008C141.468 65.5873 141.578 66.075 141.798 66.471C142.025 66.867 142.322 67.164 142.689 67.362C143.063 67.5527 143.466 67.648 143.899 67.648Z" fill="black"/>
<path d="M91.7719 55.376H58.3639L51.2599 74H49.0519L74.1079 8.432H76.0279L100.988 74H98.7799L91.7719 55.376ZM91.0999 53.648L75.0679 11.504L59.0359 53.648H91.0999Z" fill="#767676" fill-opacity="0.15"/>
<path d="M39.7182 42.608C39.7182 43.184 39.7022 43.616 39.6702 43.904H28.4142C28.4462 45.072 28.7022 46.056 29.1822 46.856C29.6622 47.656 30.2942 48.256 31.0782 48.656C31.8622 49.056 32.7182 49.256 33.6462 49.256C34.9262 49.256 35.9982 48.944 36.8622 48.32C37.7262 47.68 38.2702 46.816 38.4942 45.728H39.6222C39.3662 47.056 38.7102 48.136 37.6542 48.968C36.5982 49.784 35.2622 50.192 33.6462 50.192C32.4302 50.192 31.3422 49.92 30.3822 49.376C29.4222 48.832 28.6702 48.056 28.1262 47.048C27.5822 46.024 27.3102 44.832 27.3102 43.472C27.3102 42.112 27.5742 40.928 28.1022 39.92C28.6462 38.912 29.3982 38.144 30.3582 37.616C31.3182 37.072 32.4142 36.8 33.6462 36.8C34.8942 36.8 35.9742 37.072 36.8862 37.616C37.8142 38.144 38.5182 38.856 38.9982 39.752C39.4782 40.632 39.7182 41.584 39.7182 42.608ZM38.6382 43.016C38.6862 41.864 38.4782 40.888 38.0142 40.088C37.5662 39.288 36.9502 38.696 36.1662 38.312C35.3822 37.912 34.5342 37.712 33.6222 37.712C32.7102 37.712 31.8622 37.912 31.0782 38.312C30.3102 38.696 29.6782 39.288 29.1822 40.088C28.7022 40.888 28.4462 41.864 28.4142 43.016H38.6382ZM46.7502 37.904V46.52C46.7502 47.48 46.9262 48.144 47.2782 48.512C47.6302 48.864 48.2542 49.04 49.1502 49.04H50.6142V50H48.9822C47.8462 50 47.0062 49.736 46.4622 49.208C45.9342 48.664 45.6702 47.768 45.6702 46.52V37.904H43.7022V36.968H45.6702V33.656H46.7502V36.968H50.6142V37.904H46.7502ZM61.5265 36.704C63.0625 36.704 64.3185 37.184 65.2945 38.144C66.2705 39.088 66.7585 40.496 66.7585 42.368V50H65.7025V42.44C65.7025 40.888 65.3105 39.704 64.5265 38.888C63.7425 38.056 62.6785 37.64 61.3345 37.64C59.9265 37.64 58.7985 38.088 57.9505 38.984C57.1185 39.88 56.7025 41.208 56.7025 42.968V50H55.6225V32.24H56.7025V39.728C57.0705 38.752 57.6865 38.008 58.5505 37.496C59.4145 36.968 60.4065 36.704 61.5265 36.704ZM84.4717 42.608C84.4717 43.184 84.4557 43.616 84.4237 43.904H73.1677C73.1997 45.072 73.4557 46.056 73.9357 46.856C74.4157 47.656 75.0477 48.256 75.8317 48.656C76.6157 49.056 77.4717 49.256 78.3997 49.256C79.6797 49.256 80.7517 48.944 81.6157 48.32C82.4797 47.68 83.0237 46.816 83.2477 45.728H84.3757C84.1197 47.056 83.4637 48.136 82.4077 48.968C81.3517 49.784 80.0157 50.192 78.3997 50.192C77.1837 50.192 76.0957 49.92 75.1357 49.376C74.1757 48.832 73.4237 48.056 72.8797 47.048C72.3357 46.024 72.0637 44.832 72.0637 43.472C72.0637 42.112 72.3277 40.928 72.8557 39.92C73.3997 38.912 74.1517 38.144 75.1117 37.616C76.0717 37.072 77.1677 36.8 78.3997 36.8C79.6477 36.8 80.7277 37.072 81.6397 37.616C82.5677 38.144 83.2717 38.856 83.7517 39.752C84.2317 40.632 84.4717 41.584 84.4717 42.608ZM83.3917 43.016C83.4397 41.864 83.2317 40.888 82.7677 40.088C82.3197 39.288 81.7037 38.696 80.9197 38.312C80.1357 37.912 79.2877 37.712 78.3757 37.712C77.4637 37.712 76.6157 37.912 75.8317 38.312C75.0637 38.696 74.4317 39.288 73.9357 40.088C73.4557 40.888 73.1997 41.864 73.1677 43.016H83.3917ZM90.9757 39.656C91.2957 38.696 91.8637 37.968 92.6797 37.472C93.4957 36.96 94.5357 36.704 95.7997 36.704V37.832H95.4397C94.1597 37.832 93.0957 38.2 92.2477 38.936C91.3997 39.656 90.9757 40.84 90.9757 42.488V50H89.8957V36.968H90.9757V39.656ZM100.998 34.064C100.742 34.064 100.526 33.984 100.35 33.824C100.174 33.648 100.086 33.416 100.086 33.128C100.086 32.856 100.174 32.632 100.35 32.456C100.526 32.28 100.742 32.192 100.998 32.192C101.254 32.192 101.47 32.28 101.646 32.456C101.822 32.632 101.91 32.856 101.91 33.128C101.91 33.416 101.822 33.648 101.646 33.824C101.47 33.984 101.254 34.064 100.998 34.064ZM101.526 36.968V50H100.446V36.968H101.526ZM106.973 43.472C106.973 42.128 107.237 40.952 107.765 39.944C108.309 38.936 109.053 38.16 109.997 37.616C110.957 37.072 112.045 36.8 113.261 36.8C114.637 36.8 115.805 37.136 116.765 37.808C117.725 38.48 118.397 39.336 118.781 40.376V36.968H119.861V50H118.781V46.568C118.397 47.624 117.717 48.496 116.741 49.184C115.781 49.856 114.621 50.192 113.261 50.192C112.045 50.192 110.957 49.92 109.997 49.376C109.053 48.816 108.309 48.032 107.765 47.024C107.237 46 106.973 44.816 106.973 43.472ZM118.781 43.472C118.781 42.336 118.541 41.336 118.061 40.472C117.597 39.592 116.957 38.92 116.141 38.456C115.325 37.976 114.413 37.736 113.405 37.736C112.349 37.736 111.421 37.968 110.621 38.432C109.821 38.88 109.197 39.536 108.749 40.4C108.301 41.264 108.077 42.288 108.077 43.472C108.077 44.656 108.301 45.68 108.749 46.544C109.197 47.408 109.821 48.072 110.621 48.536C111.437 49 112.365 49.232 113.405 49.232C114.413 49.232 115.325 49 116.141 48.536C116.973 48.056 117.621 47.384 118.085 46.52C118.549 45.64 118.781 44.624 118.781 43.472Z" fill="#040404"/>
</svg>
